HIERARCHY
ROOT COM
{
  OFFSET 0.000000 0.000000 0.000000
  CHANNELS 6 Xposition Yposition Zposition Zrotation Xrotation Yrotation
  JOINT Spine
  {
    OFFSET 0.000000 10.031300 -3.647750
    CHANNELS 3 Zrotation Xrotation Yrotation
    JOINT Spine1
    {
      OFFSET 0.000000 14.268000 -0.012359
      CHANNELS 3 Zrotation Xrotation Yrotation
      JOINT Spine2
      {
        OFFSET 0.000000 15.553400 -0.011802
        CHANNELS 3 Zrotation Xrotation Yrotation
        JOINT Neck
        {
          OFFSET 0.000000 15.343700 -0.005077
          CHANNELS 3 Zrotation Xrotation Yrotation
          JOINT Head
          {
            OFFSET 0.000000 6.594300 0.000000
            CHANNELS 3 Zrotation Xrotation Yrotation
            End Site
            {
              OFFSET 0.000000 0.000000 0.000000
            }
          }
          JOINT Leftcollar
          {
            OFFSET 4.254290 -1.548100 1.990670
            CHANNELS 3 Zrotation Xrotation Yrotation
            JOINT LeftArm
            {
              OFFSET 16.825900 0.000000 0.000000
              CHANNELS 3 Zrotation Xrotation Yrotation
              JOINT LeftForeArm
              {
                OFFSET 0.000000 -28.058000 0.000000
                CHANNELS 3 Zrotation Xrotation Yrotation
                JOINT LeftHand
                {
                  OFFSET 0.000000 -24.725300 0.000000
                  CHANNELS 3 Zrotation Xrotation Yrotation
                  End Site
                  {
                    OFFSET -2.986150 -9.946190 -0.575321
                  }
                }
              }
            }
          }
          JOINT RightCollar
          {
            OFFSET -4.254280 -1.548090 1.990690
            CHANNELS 3 Zrotation Xrotation Yrotation
            JOINT RightArm
            {
              OFFSET -16.825900 0.000000 0.000000
              CHANNELS 3 Zrotation Xrotation Yrotation
              JOINT RightForeArm
              {
                OFFSET 0.000000 -28.058000 0.000000
                CHANNELS 3 Zrotation Xrotation Yrotation
                JOINT RightHand
                {
                  OFFSET 0.000000 -24.725300 0.000000
                  CHANNELS 3 Zrotation Xrotation Yrotation
                  End Site
                  {
                    OFFSET 2.986150 -9.946180 -0.575319
                  }
                }
              }
            }
          }
        }
      }
    }
  }
  JOINT LeftUpLeg
  {
    OFFSET 9.942750 0.000000 0.000000
    CHANNELS 3 Zrotation Xrotation Yrotation
    JOINT LeftLeg
    {
      OFFSET 0.000000 -45.973000 0.000000
      CHANNELS 3 Zrotation Xrotation Yrotation
      JOINT LeftFoot
      {
        OFFSET 0.000000 -43.163400 0.000000
        CHANNELS 3 Zrotation Xrotation Yrotation
        JOINT LeftToe
        {
          OFFSET 0.000000 0.000000 15.628600
          CHANNELS 3 Zrotation Xrotation Yrotation
          End Site
          {
            OFFSET 0.000000 0.000000 0.000000
          }
        }
      }
    }
  }
  JOINT RightUpLeg
  {
    OFFSET -9.942750 0.000000 0.000000
    CHANNELS 3 Zrotation Xrotation Yrotation
    JOINT RightLeg
    {
      OFFSET 0.000000 -45.973000 0.000000
      CHANNELS 3 Zrotation Xrotation Yrotation
      JOINT RightFoot
      {
        OFFSET 0.000000 -43.163400 0.000000
        CHANNELS 3 Zrotation Xrotation Yrotation
        JOINT RightToe
        {
          OFFSET 0.000000 0.000000 15.628600
          CHANNELS 3 Zrotation Xrotation Yrotation
          End Site
          {
            OFFSET 0.000000 0.000000 0.000000
          }
        }
      }
    }
  }
}
MOTION
Frames: 17
Frame Time: 0.033333
19.515800 90.849800 -114.746000 351.926270 4.834270 4.334720 10.058100 354.938680 0.000000 360.000000 360.000000 341.982500 360.000000 360.000000 0.000000 360.000000 360.000000 0.000000 360.000000 360.000000 0.000000 360.000000 360.000000 0.000000 26.772200 345.457300 350.989430 0.000000 316.776800 0.000000 360.000000 0.000000 90.000000 360.000000 360.000000 0.000000 340.776400 23.934700 24.754600 360.000000 348.629900 0.000000 360.000000 0.000000 270.000000 12.770200 9.701980 30.338700 0.000000 38.051000 360.000000 360.000000 19.310100 343.018100 0.000000 0.000000 360.000000 13.707500 343.338600 325.875400 0.000000 5.279270 0.000000 359.999999 24.462700 27.389900 0.000000 360.000000 360.000000 
19.668500 91.504100 -110.858000 352.317820 3.483790 4.209080 9.779030 355.910970 0.000000 0.000000 360.000000 343.344800 0.000000 0.000000 0.000000 0.000000 0.000000 0.000000 0.000000 0.000000 0.000000 0.000000 0.000000 0.000000 24.879000 347.588300 348.308100 360.000000 318.193100 0.000000 0.000000 0.000000 90.000000 0.000000 0.000000 0.000000 341.633500 21.839700 28.268400 0.000000 348.749600 360.000000 360.000000 360.000000 270.000000 14.413400 5.675570 24.797100 0.000000 48.239900 360.000000 0.000000 27.085800 348.246900 360.000000 360.000000 0.000000 12.964600 346.948000 322.572200 0.000000 6.338960 360.000000 0.000000 22.483000 30.657900 0.000000 0.000000 360.000000 
19.807100 92.020600 -107.509000 352.792950 3.122570 4.940800 9.083290 356.142450 360.000000 0.000000 360.000000 344.228300 0.000000 0.000000 0.000000 0.000000 0.000000 0.000000 0.000000 0.000000 0.000000 0.000000 0.000000 0.000000 23.452900 349.702900 345.310500 0.000000 320.209200 0.000000 0.000000 0.000000 90.000000 0.000000 0.000000 0.000000 342.228400 18.791000 30.970100 360.000000 347.423100 360.000000 0.000000 0.000000 270.000000 15.167600 359.819726 20.316500 0.000000 57.177700 360.000000 0.000000 25.732800 353.950710 0.000000 0.000000 360.000000 12.479000 349.773900 320.012700 360.000000 5.761980 0.000000 0.000001 21.075900 32.682800 360.000000 360.000000 360.000000 
19.920500 92.496800 -104.062000 354.064490 1.794900 4.413040 7.664500 357.432770 360.000000 0.000000 0.000000 346.099500 360.000000 0.000000 360.000000 360.000000 0.000000 0.000000 0.000000 0.000000 0.000000 0.000000 0.000000 0.000000 22.188400 352.244840 342.639300 0.000000 322.543900 0.000000 360.000000 0.000000 90.000000 0.000000 0.000000 0.000000 342.207800 15.176700 35.655200 0.000000 345.540000 360.000000 360.000000 360.000000 270.000000 14.643400 356.051850 17.310100 360.000000 62.107100 0.000000 360.000000 20.343200 357.791980 0.000000 0.000000 0.000000 11.821800 353.913460 319.882800 360.000000 4.602960 0.000000 360.000000 19.656400 33.210600 360.000000 360.000000 0.000000 
20.026000 92.778200 -100.902000 355.218320 1.359300 3.591050 6.326300 358.068860 0.000000 0.000000 360.000000 348.060800 0.000000 0.000000 0.000000 0.000000 0.000000 0.000000 0.000000 0.000000 0.000000 0.000000 0.000000 0.000000 21.087700 355.244320 340.964600 0.000000 324.906200 0.000000 360.000000 360.000000 90.000000 0.000000 0.000000 0.000000 341.639600 10.623600 39.152000 0.000000 342.731400 360.000000 0.000000 0.000000 270.000000 13.920500 351.263390 15.311300 0.000000 64.465800 360.000000 0.000000 17.933000 0.963963 360.000000 360.000000 360.000000 10.998700 356.733400 320.508400 360.000000 4.221500 0.000000 360.000000 17.791300 33.371300 0.000000 360.000000 360.000000 
20.113400 92.902200 -97.818500 356.156810 1.398840 2.030630 5.297930 358.345990 360.000000 0.000000 360.000000 350.338810 0.000000 0.000000 0.000000 0.000000 0.000000 0.000000 0.000000 0.000000 0.000000 0.000000 0.000000 0.000000 20.030600 358.742120 340.464200 0.000000 327.430500 0.000000 360.000000 0.000000 90.000000 0.000000 0.000000 0.000000 340.645300 5.675730 40.070100 0.000000 338.987300 0.000000 360.000000 0.000000 270.000000 13.369900 346.794600 14.601100 0.000000 63.829000 360.000000 360.000000 15.843300 2.576660 0.000000 0.000000 0.000000 10.127200 358.761690 321.450600 360.000000 4.492570 0.000000 360.000000 15.924500 33.724800 0.000000 360.000000 0.000000 
20.199000 92.896800 -94.825100 356.784120 1.244440 0.671318 4.600220 358.911530 360.000000 360.000000 360.000000 352.238900 0.000000 360.000000 360.000000 0.000000 0.000000 0.000000 0.000000 360.000000 360.000000 0.000000 360.000000 360.000000 19.095800 2.029920 340.544300 0.000000 330.641000 0.000000 360.000000 0.000000 90.000000 0.000000 360.000000 360.000000 339.470300 0.615485 39.156900 360.000000 334.844100 360.000000 360.000000 360.000000 270.000000 12.875400 342.691600 13.654300 0.000000 61.076900 360.000000 0.000000 13.787500 3.069920 360.000000 360.000000 360.000000 9.371790 0.696632 322.288100 0.000000 5.275770 360.000000 359.999999 13.867200 33.960200 0.000000 0.000000 360.000000 
20.340000 92.791900 -91.926500 357.307240 1.428880 359.541103 4.032370 359.288508 0.000000 0.000000 0.000000 353.782020 360.000000 0.000000 0.000000 360.000000 360.000000 0.000000 360.000000 0.000000 0.000000 360.000000 0.000000 0.000000 18.330000 5.175730 340.361100 360.000000 334.354400 0.000000 0.000000 0.000000 90.000000 360.000000 0.000000 0.000000 338.141900 355.683500 36.476600 0.000000 330.402300 0.000000 360.000000 0.000000 270.000000 12.459100 339.004800 13.657800 360.000000 55.778200 0.000000 0.000000 11.888500 3.439260 0.000000 0.000000 360.000000 8.504020 2.081390 323.162900 0.000000 6.286150 360.000000 0.000000 11.735400 34.235000 360.000000 360.000000 0.000000 
20.569600 92.637700 -88.902100 357.885780 1.759730 358.458450 3.483730 359.375682 0.000000 360.000000 0.000000 355.097060 0.000000 0.000000 0.000000 360.000000 0.000000 360.000000 0.000000 0.000000 0.000000 0.000000 0.000000 0.000000 17.601400 8.021070 340.805700 0.000000 338.810700 0.000000 360.000000 0.000000 90.000000 0.000000 0.000000 0.000000 336.488200 351.172120 34.048500 360.000000 325.895600 360.000000 0.000000 0.000000 270.000000 11.802100 336.156400 14.508500 0.000000 48.273800 360.000000 360.000000 11.152700 3.784100 0.000000 0.000000 360.000000 7.659510 3.539450 324.389300 360.000000 6.808280 360.000000 0.000001 9.863070 33.915000 0.000000 0.000000 0.000000 
20.811500 92.408800 -85.932000 358.450760 2.684360 357.660440 2.951440 358.922100 360.000000 0.000000 360.000000 355.969870 0.000000 360.000000 0.000000 360.000000 360.000000 360.000000 360.000000 360.000000 360.000000 360.000000 360.000000 360.000000 17.178300 10.951300 340.621400 360.000000 342.428100 0.000000 0.000000 0.000000 90.000000 360.000000 360.000000 360.000000 334.706400 346.954100 31.468900 360.000000 321.673400 360.000000 0.000000 0.000000 270.000000 10.997200 333.783700 16.587400 0.000000 38.584800 0.000000 360.000000 11.373800 3.072530 0.000000 0.000000 0.000000 6.748290 4.203020 326.043900 360.000000 7.652750 360.000000 0.000000 7.892310 33.063500 360.000000 360.000000 0.000000 
21.038200 92.141300 -82.743700 358.791700 3.579900 356.368110 2.676550 358.385490 0.000000 360.000000 0.000000 357.403280 360.000000 360.000000 360.000000 0.000000 360.000000 360.000000 0.000000 360.000000 360.000000 0.000000 360.000000 360.000000 16.785400 13.444100 341.499300 360.000000 346.030000 360.000000 0.000000 0.000000 90.000000 0.000000 360.000000 360.000000 332.924000 343.365300 28.824600 0.000000 318.253300 0.000000 360.000000 0.000000 270.000000 10.223400 333.084200 21.162500 0.000000 26.367300 360.000000 0.000000 14.032400 358.765820 0.000000 0.000000 0.000000 6.011360 5.206640 327.076000 0.000000 8.054740 0.000000 0.000000 6.603080 33.278500 0.000000 360.000000 360.000000 
21.227500 91.709200 -79.461800 358.701630 4.932320 355.057520 2.965590 357.397540 0.000000 0.000000 0.000000 358.374160 360.000000 360.000000 360.000000 360.000000 0.000000 360.000000 360.000000 0.000000 360.000000 360.000000 0.000000 360.000000 16.644300 16.214400 342.883300 360.000000 348.484700 0.000000 0.000000 0.000000 90.000000 360.000000 0.000000 360.000000 331.042700 340.127000 26.783400 0.000000 315.028000 0.000000 360.000000 0.000000 270.000000 9.327260 332.595500 28.403200 360.000000 13.772200 360.000000 0.000000 17.353700 348.231800 360.000000 360.000000 360.000000 5.754600 5.919450 327.753200 360.000000 8.183370 360.000000 360.000000 5.609840 33.829100 0.000000 0.000000 0.000000 
21.478100 91.176300 -75.994700 358.405370 6.058420 353.173460 3.617560 356.629240 360.000000 0.000000 360.000000 359.599128 360.000000 0.000000 360.000000 360.000000 0.000000 360.000000 360.000000 0.000000 360.000000 360.000000 0.000000 360.000000 16.425400 18.628900 345.376300 0.000000 350.578810 0.000000 0.000000 360.000000 90.000000 360.000000 0.000000 360.000000 329.020100 337.351500 25.249100 0.000000 312.337800 0.000000 360.000000 0.000000 270.000000 8.173760 332.299800 35.532700 360.000000 3.848960 360.000000 0.000001 18.543500 335.352000 0.000000 0.000000 0.000000 5.344200 6.866250 327.734000 0.000000 8.665860 360.000000 360.000000 5.006110 35.771300 0.000000 0.000000 0.000000 
21.892300 90.642600 -72.415100 358.301320 7.006730 351.464310 4.159700 355.989340 0.000000 360.000000 360.000000 0.460232 0.000000 0.000000 0.000000 0.000000 0.000000 0.000000 0.000000 0.000000 0.000000 0.000000 0.000000 0.000000 16.260400 20.593200 346.368700 360.000000 352.000010 360.000000 0.000000 0.000000 90.000000 0.000000 0.000000 0.000000 327.561400 335.233600 23.133200 0.000000 310.438100 360.000000 360.000000 0.000000 270.000000 7.314570 331.964000 36.750400 0.000000 359.177901 0.000000 360.000000 16.372200 327.853600 0.000000 0.000000 0.000000 4.417960 7.682910 327.990700 360.000000 9.809540 0.000000 0.000000 4.506020 37.014900 0.000000 0.000000 0.000000 
22.192300 90.302100 -68.392300 359.029603 6.598720 349.549300 3.527430 356.252250 0.000000 360.000000 0.000000 0.764969 0.000000 0.000000 0.000000 360.000000 360.000000 360.000000 0.000000 0.000000 0.000000 0.000000 0.000000 0.000000 16.224900 22.191700 346.988700 0.000000 353.110720 360.000000 360.000000 0.000000 90.000000 0.000000 0.000000 0.000000 326.823500 334.036200 22.488400 0.000000 308.930100 360.000000 0.000000 360.000000 270.000000 6.977620 333.521200 36.392900 0.000000 0.492856 0.000000 360.000000 17.990800 327.100700 0.000000 0.000000 0.000000 2.412880 9.640490 330.224000 360.000000 11.476300 0.000000 0.000000 4.366030 36.433700 0.000000 360.000000 0.000000 
22.591100 90.163700 -63.995300 0.357647 5.730060 348.014900 2.208520 356.333800 0.000000 360.000000 0.000000 0.770519 0.000000 0.000000 0.000000 0.000000 0.000000 0.000000 0.000000 0.000000 0.000000 0.000000 0.000000 0.000000 16.371700 22.919800 346.319400 360.000000 354.140530 360.000000 0.000000 360.000000 90.000000 0.000000 0.000000 0.000000 326.602100 334.461500 22.076700 360.000000 307.722000 360.000000 0.000000 360.000000 270.000000 5.032700 336.271900 33.838500 0.000000 1.234860 0.000000 360.000000 21.505000 332.055800 360.000000 360.000000 0.000000 359.502197 11.563200 332.897000 0.000000 14.091100 0.000000 0.000000 4.712630 34.880600 0.000000 0.000000 0.000000 
22.938500 90.162800 -59.455900 1.436980 4.838960 346.060100 1.271370 356.202860 0.000000 360.000000 0.000000 1.007930 0.000000 0.000000 0.000000 0.000000 0.000000 0.000000 0.000000 0.000000 0.000000 0.000000 0.000000 0.000000 16.430400 23.092800 345.830700 0.000000 353.957670 0.000000 0.000000 0.000000 90.000000 0.000000 0.000000 0.000000 326.640100 335.892000 22.558800 0.000000 306.905300 360.000000 360.000000 0.000000 270.000000 3.656980 339.372000 34.928000 360.000000 1.419310 360.000000 0.000001 26.783500 332.561600 0.000000 360.000000 360.000000 356.493590 12.401100 336.778600 360.000000 18.524500 0.000000 360.000000 6.395830 32.093200 360.000000 360.000000 0.000000 
